<?xml version="1.0" encoding="utf-8"?>
<!-- Generator: Adobe Illustrator 27.5.0, SVG Export Plug-In . SVG Version: 6.00 Build 0)  -->
<svg version="1.1" xmlns="http://www.w3.org/2000/svg" xmlns:xlink="http://www.w3.org/1999/xlink" x="0px" y="0px"
	 viewBox="0 0 1122 1122" style="enable-background:new 0 0 1122 1122;" xml:space="preserve">
<g id="Bg">
	<rect id="XMLID_1212_" x="0" y="0" style="fill:#FFF6E3;" width="1122" height="1122"/>
</g>
<g id="Object">
	<g id="XMLID_175_">
		<g id="XMLID_4243_">
			<circle id="XMLID_4244_" style="fill:#EBCB42;" cx="561" cy="561" r="322.377"/>
		</g>
		<g id="XMLID_4288_">
			<g id="XMLID_4291_">
				<path id="XMLID_4292_" style="fill:#EBCB42;" d="M804.868,406.241c-8.411-0.357-16.1-4.289-22.069-9.608
					c-6.722-5.991-11.211-13.75-14.615-21.708c-2.04-4.769-3.752-9.649-5.458-14.525c-0.751-2.146-3.868-2.081-4.648,0
					c-2.612,6.969-5.821,13.725-9.62,20.211c-3.152,5.382-6.668,10.777-11.818,14.739c-0.216,0.166-0.437,0.327-0.659,0.484
					c-5.643,3.242-12.3,4.848-19.017,4.53c-2.671-0.126-3.338,3.93-0.641,4.377c18.364,3.047,33.757,16.335,39.349,32.674
					c1.584,4.63,2.35,9.413,2.224,14.269c-0.069,2.645,3.834,2.847,4.734,0.592c5.935-14.867,12.806-31.433,29.218-38.841
					c4.057-1.831,8.504-2.805,13.02-2.736C807.981,410.745,807.955,406.372,804.868,406.241z"/>
			</g>
			<g id="XMLID_4289_">
				<path id="XMLID_4290_" style="fill:#EBCB42;" d="M339.681,621.851c-5.13-0.218-9.82-2.616-13.46-5.86
					c-4.1-3.654-6.838-8.386-8.914-13.24c-1.244-2.908-2.289-5.885-3.329-8.859c-0.458-1.309-2.359-1.27-2.835,0
					c-1.593,4.25-3.55,8.371-5.867,12.327c-1.923,3.283-4.067,6.573-7.208,8.989c-0.132,0.102-0.267,0.199-0.402,0.295
					c-3.442,1.977-7.502,2.956-11.599,2.763c-1.629-0.077-2.036,2.397-0.391,2.67c11.2,1.858,20.589,9.963,24,19.929
					c0.966,2.824,1.433,5.741,1.357,8.703c-0.042,1.614,2.339,1.737,2.887,0.361c3.62-9.068,7.811-19.172,17.821-23.691
					c2.475-1.117,5.187-1.711,7.941-1.669C341.58,624.599,341.564,621.931,339.681,621.851z"/>
			</g>
		</g>
		<g id="XMLID_4090_">
			<g id="XMLID_4112_">
				<path id="XMLID_4113_" style="fill:#60A2A2;" d="M748.436,755.259H387.012c-3.514,0-6.389-2.875-6.389-6.389V505.05
					c0-3.514,2.875-6.389,6.389-6.389h361.424c3.514,0,6.389,2.875,6.389,6.389V748.87
					C754.824,752.384,751.949,755.259,748.436,755.259z"/>
			</g>
			<g id="XMLID_4110_">
				<path id="XMLID_4111_" style="fill:#C45F43;" d="M785.28,538.737H350.167c-2.611,0-4.747-2.136-4.747-4.747v-54.734
					c0-2.611,2.136-4.747,4.746-4.747H785.28c2.611,0,4.746,2.136,4.746,4.747v54.734
					C790.027,536.601,787.891,538.737,785.28,538.737z"/>
			</g>
			<g id="XMLID_4108_">
				<path id="XMLID_4109_" style="fill:#C45F43;" d="M707.726,512.81L707.726,512.81c-7.955,6.87-20.084,5.982-26.954-1.973
					L579.06,393.062c-6.87-7.955-5.982-20.084,1.973-26.955l0,0c7.955-6.87,20.084-5.982,26.955,1.973l101.712,117.775
					C716.569,493.81,715.681,505.94,707.726,512.81z"/>
			</g>
			<g id="XMLID_4106_">
				<path id="XMLID_4107_" style="fill:#C45F43;" d="M424.609,509.169L424.609,509.169c-7.56-7.302-7.771-19.462-0.469-27.022
					l108.111-111.929c7.302-7.56,19.462-7.771,27.022-0.469l0,0c7.56,7.302,7.771,19.462,0.469,27.023L451.631,508.7
					C444.329,516.26,432.169,516.471,424.609,509.169z"/>
			</g>
			<g id="XMLID_4101_">
				<path id="XMLID_4105_" style="fill:#E0DBC0;" d="M522.857,729.13h-10.179c-0.892,0-1.622-0.73-1.622-1.622V629.29
					c0-0.892,0.73-1.622,1.622-1.622h10.179c0.892,0,1.622,0.73,1.622,1.622v98.217C524.479,728.4,523.749,729.13,522.857,729.13z"
					/>
				<path id="XMLID_4102_" style="fill:#EBCB42;" d="M519.734,732.149h-3.932c-4.283,0-7.766-3.483-7.766-7.765v-91.971
					c0-4.283,3.483-7.766,7.766-7.766h3.932c4.283,0,7.766,3.483,7.766,7.766v91.971C527.5,728.666,524.017,732.149,519.734,732.149
					z M515.803,630.688c-0.934,0-1.726,0.79-1.726,1.726v91.971c0,0.934,0.792,1.724,1.726,1.724h3.932
					c0.934,0,1.726-0.79,1.726-1.724v-91.971c0-0.936-0.791-1.726-1.726-1.726H515.803z"/>
			</g>
			<g id="XMLID_4096_">
				<path id="XMLID_4100_" style="fill:#E0DBC0;" d="M576.489,729.13h-10.179c-0.892,0-1.622-0.73-1.622-1.622V629.29
					c0-0.892,0.73-1.622,1.622-1.622h10.179c0.892,0,1.622,0.73,1.622,1.622v98.217C578.111,728.4,577.381,729.13,576.489,729.13z"
					/>
				<path id="XMLID_4097_" style="fill:#EBCB42;" d="M573.365,732.149h-3.931c-4.283,0-7.766-3.483-7.766-7.765v-91.971
					c0-4.283,3.483-7.766,7.766-7.766h3.931c4.283,0,7.766,3.483,7.766,7.766v91.971
					C581.131,728.666,577.648,732.149,573.365,732.149z M569.434,630.688c-0.935,0-1.726,0.79-1.726,1.726v91.971
					c0,0.934,0.791,1.724,1.726,1.724h3.931c0.935,0,1.726-0.79,1.726-1.724v-91.971c0-0.936-0.791-1.726-1.726-1.726H569.434z"/>
			</g>
			<g id="XMLID_4091_">
				<path id="XMLID_4095_" style="fill:#E0DBC0;" d="M636.191,729.13h-10.179c-0.892,0-1.622-0.73-1.622-1.622V629.29
					c0-0.892,0.73-1.622,1.622-1.622h10.179c0.892,0,1.622,0.73,1.622,1.622v98.217C637.813,728.4,637.083,729.13,636.191,729.13z"
					/>
				<path id="XMLID_4092_" style="fill:#EBCB42;" d="M633.068,732.149h-3.931c-4.283,0-7.766-3.483-7.766-7.765v-91.971
					c0-4.283,3.483-7.766,7.766-7.766h3.931c4.283,0,7.766,3.483,7.766,7.766v91.971
					C640.834,728.666,637.351,732.149,633.068,732.149z M629.136,630.688c-0.934,0-1.726,0.79-1.726,1.726v91.971
					c0,0.934,0.792,1.724,1.726,1.724h3.931c0.934,0,1.726-0.79,1.726-1.724v-91.971c0-0.936-0.791-1.726-1.726-1.726H629.136z"/>
			</g>
		</g>
		<g id="XMLID_4082_">
			<g id="XMLID_4085_">
				<path id="XMLID_4086_" style="fill:#433930;" d="M660.242,466.464l-13.477,30.445c-3.338,7.54-1.95,16.344,3.543,22.481
					l49.315,55.093c7.038,7.862,18.812,9.222,27.444,3.169l43.432-30.452c10.431-7.314,11.958-22.221,3.227-31.512l-51.768-55.086
					c-3.939-4.191-9.424-6.566-15.164-6.566h-27.502C671.053,454.036,663.587,458.906,660.242,466.464z"/>
			</g>
			<g id="XMLID_4083_">
				<path id="XMLID_4084_" style="fill:#E0DBC0;" d="M692.281,474.587c0,6.249-5.066,11.315-11.314,11.315
					c-6.249,0-11.315-5.066-11.315-11.315c0-6.249,5.066-11.315,11.315-11.315C687.215,463.273,692.281,468.338,692.281,474.587z"/>
			</g>
		</g>
	</g>
</g>
</svg>
